{"title":"Jenna Is Timeless","uid":6920474,"size":713264221,"categoryP":"porn","categoryS":"movies","magnet":"?xt=urn:btih:366dcb0c856a2b4279f2572c915888eac8d48613&amp;dn=Jenna+Is+Timeless&amp;tr=udp%3A%2F%2Ftracker.openbittorrent.com%3A80&amp;tr=udp%3A%2F%2Fopen.demonii.com%3A1337&amp;tr=udp%3A%2F%2Ftracker.coppersurfer.tk%3A6969&amp;tr=udp%3A%2F%2Fexodus.desync.com%3A6969","seeders":0,"leechers":0,"uploader":"tigris1968","files":7,"time":1325195583,"description":"Jenna Is Timeless DVD\n\nStudio \tClub Jenna\n\nCategory \tAll Sex, Compilation, Star-Power\n\nStarring \tJessica Drake, Dana DeArmond, Jenna Jameson, Brooke Haven, \n\nBridgette Kerkove, Ava Vincent, Daisy Marie, Cindy Crawford, Cherry.\n &lt;a href=&quot;\nhttp://bayimg.com/EALOEaadj&quot; rel=&quot;nofollow&quot; target=&quot;_NEW&quot;&gt;\nhttp://bayimg.com/EALOEaadj&lt;/a&gt;\n &lt;a href=&quot;\nhttp://bayimg.com/eaLOFAADj&quot; rel=&quot;nofollow&quot; target=&quot;_NEW&quot;&gt;\nhttp://bayimg.com/eaLOFAADj&lt;/a&gt;\n &lt;a href=&quot;\nhttp://bayimg.com/EalOgaaDJ&quot; rel=&quot;nofollow&quot; target=&quot;_NEW&quot;&gt;\nhttp://bayimg.com/EalOgaaDJ&lt;/a&gt;\n\nGeneral\nComplete name                    : C:\\Downloads\\Jenna Is Timeless\\Jenna Is Timeless.avi\nFormat                           : AVI\nFormat/Info                      : Audio Video Interleave\nFile size                        : 679 MiB\nDuration                         : 1h 11mn\nOverall bit rate                 : 1 324 Kbps\nWriting application              : MEncoder SVN-r30881(20100311-gcc4.3.3)\nWriting library                  : MPlayer\n\nVideo\nID                               : 0\nFormat                           : MPEG-4 Visual\nFormat profile                   : Advanced Simple@L5\nFormat settings, BVOP            : 2\nFormat settings, QPel            : No\nFormat settings, GMC             : No warppoints\nFormat settings, Matrix          : Default (H.263)\nCodec ID                         : XVID\nCodec ID/Hint                    : XviD\nDuration                         : 1h 11mn\nBit rate                         : 1 184 Kbps\nWidth                            : 720 pixels\nHeight                           : 480 pixels\nDisplay aspect ratio             : 3:2\nFrame rate                       : 25.000 fps\nStandard                         : NTSC\nColor space                      : YUV\nChroma subsampling               : 4:2:0\nBit depth                        : 8 bits\nScan type                        : Progressive\nCompression mode                 : Lossy\nBits/(Pixel*Frame)               : 0.137\nStream size                      : 607 MiB (89%)\nWriting library                  : XviD 1.2.1 (UTC 2008-12-04)\n\nAudio\nID                               : 1\nFormat                           : MPEG Audio\nFormat version                   : Version 1\nFormat profile                   : Layer 3\nMode                             : Joint stereo\nMode extension                   : MS Stereo\nCodec ID                         : 55\nCodec ID/Hint                    : MP3\nDuration                         : 1h 11mn\nBit rate mode                    : Constant\nBit rate                         : 128 Kbps\nChannel(s)                       : 2 channels\nSampling rate                    : 44.1 KHz\nCompression mode                 : Lossy\nDelay relative to video          : 40ms\nStream size                      : 65.7 MiB (10%)\nAlignment                        : Aligned on interleaves\nInterleave, duration             : 26 ms (0.65 video frame)\nInterleave, preload duration     : 522 ms\nWriting library                  : LAME3.98","torrent":{"xt":"urn:btih:366dcb0c856a2b4279f2572c915888eac8d48613","amp;dn":"Jenna+Is+Timeless","amp;tr":["udp%3A%2F%2Ftracker.openbittorrent.com%3A80","udp%3A%2F%2Fopen.demonii.com%3A1337","udp%3A%2F%2Ftracker.coppersurfer.tk%3A6969","udp%3A%2F%2Fexodus.desync.com%3A6969"],"infoHash":"366dcb0c856a2b4279f2572c915888eac8d48613","infoHashBuffer":{"type":"Buffer","data":[54,109,203,12,133,106,43,66,121,242,87,44,145,88,136,234,200,212,134,19]},"announce":[],"urlList":[]}}